<?xml version="1.0" encoding="iso-8859-1"?>
<!-- Generator: Adobe Illustrator 19.0.0, SVG Export Plug-In . SVG Version: 6.00 Build 0)  -->
<svg xmlns="http://www.w3.org/2000/svg" xmlns:xlink="http://www.w3.org/1999/xlink" version="1.1" id="Capa_1" x="0px" y="0px" viewBox="0 0 512 512" style="enable-background:new 0 0 512 512;" xml:space="preserve" width="512px" height="512px">
<g>
	<g>
		<g>
			<path d="M171.312,299.312l47.296-47.296l41.424,46.608l24-21.248l-42.688-48l42.032-42.032l-22.624-22.624l-40.704,40.704     l-40.72-45.76c26.386-1.807,46.311-24.663,44.503-51.049C222.109,83.475,201.199,63.971,176,64H64v192h32v-96h40.816     l60.496,68.064l-48.624,48.624L171.312,299.312z M96,128V96h80c8.837,0,16,7.163,16,16s-7.163,16-16,16H96z" fill="#FFFFFF"/>
			<path d="M342.624,0H0v512h512V169.376L342.624,0z M352,54.624L457.376,160H352V54.624z M480,480H32V32h288v160h160V480z" fill="#FFFFFF"/>
			<rect x="96" y="352" width="32" height="32" fill="#FFFFFF"/>
			<rect x="160" y="352" width="256" height="32" fill="#FFFFFF"/>
			<rect x="96" y="416" width="32" height="32" fill="#FFFFFF"/>
			<rect x="160" y="416" width="256" height="32" fill="#FFFFFF"/>
		</g>
	</g>
</g>
<g>
</g>
<g>
</g>
<g>
</g>
<g>
</g>
<g>
</g>
<g>
</g>
<g>
</g>
<g>
</g>
<g>
</g>
<g>
</g>
<g>
</g>
<g>
</g>
<g>
</g>
<g>
</g>
<g>
</g>
</svg>
